<?xml version="1.0" encoding="utf-8"?>
<!-- Generator: Adobe Illustrator 24.0.3, SVG Export Plug-In . SVG Version: 6.00 Build 0)  -->
<svg version="1.1" id="layer1" xmlns="http://www.w3.org/2000/svg" xmlns:xlink="http://www.w3.org/1999/xlink" x="0px" y="0px"
	 viewBox="0 0 1366 768" style="enable-background:new 0 0 1366 768;" xml:space="preserve">
<style type="text/css">
	.st0{fill:#FFFFFF;}
</style>
<image style="overflow:visible;" width="1930" height="1080" xlink:href="../../../../Portfolio/artwork/chicago/chicago.jpg"  transform="matrix(0.5455 0 0 0.5455 167 77)">
</image>
<g>
	<g>
		<path class="st0" d="M81.44,185.7c16.74,17.07,31.67,35.77,47.59,53.58c15.11,16.91,31.26,33.02,50.17,45.69
			c17.75,11.89,37.9,20.71,59.31,22.89c23.47,2.39,46.61-4.03,68.05-13.09c10.87-4.59,21.46-9.84,31.94-15.25
			c9.42-4.87,18.73-10.11,26.9-16.92c8.4-7.01,14.83-15.68,19.09-25.77c4.33-10.26,6.85-21.39,8.39-32.4
			c1.47-10.49,1.82-21.35-0.85-31.68c-2.55-9.84-8-18.6-16.13-24.76c-7.69-5.84-17.35-9.19-27.03-9.15
			c-9.51,0.04-18.72,3.51-26.19,9.34c-7.54,5.89-13.36,14.29-15.57,23.66c-1.27,5.38-1.03,10.89,1.52,15.86
			c2.24,4.38,5.9,7.88,9.85,10.72c7.6,5.47,18.98,10.59,28.1,5.82c6.31-3.3,7.82-12.1,3.71-17.78c-1.88-2.6-4.72-3.77-7.88-3.2
			c-1.9,0.34-1.09,3.23,0.8,2.89c6.35-1.15,7.45,8.68,5.14,12.59c-2.16,3.64-7.13,4.56-11.02,4.29c-4.9-0.34-9.61-2.4-13.78-4.88
			c-4.04-2.4-7.94-5.38-10.67-9.25c-3.07-4.33-4.13-9.37-3.21-14.6c1.6-9.11,7.04-17.34,14.1-23.18c6.9-5.7,15.68-9.16,24.65-9.29
			c9.17-0.14,18.28,2.97,25.61,8.46c16.92,12.65,18.69,34.99,15.82,54.35c-1.53,10.33-3.88,20.79-7.86,30.47
			c-3.97,9.64-10.02,17.95-17.94,24.72c-7.62,6.52-16.42,11.54-25.27,16.17c-9.74,5.09-19.6,10-29.66,14.42
			c-20.38,8.97-42.32,15.84-64.83,14.86c-20.27-0.89-39.68-8.23-56.91-18.66c-18.07-10.94-33.72-25.22-48.11-40.59
			c-15.32-16.35-29.33-33.86-44.39-50.44c-3.7-4.07-7.47-8.09-11.32-12.02C82.21,182.19,80.09,184.32,81.44,185.7L81.44,185.7z"/>
	</g>
</g>
<g>
	<g>
		<path class="st0" d="M784.18,285.56c15.94,10.08,32.89,18.52,50.52,25.21c17.37,6.59,35.51,11.63,53.89,14.4
			c17.2,2.59,35.55,3.03,51.97-3.53c14.09-5.62,25.24-16.21,32.13-29.67c6.66-13.01,9.43-27.9,8.87-42.46
			c-0.29-7.5-1.46-14.99-3.55-22.2c-2.35-8.13-5.91-16.14-11.72-22.41c-11.03-11.91-27.94-13.92-43.15-10.92
			c-7.84,1.54-15.46,4.34-22.54,8.02c-7.11,3.69-13.88,8.61-18.81,14.98c-4.65,6-7.38,13.49-5.83,21.11
			c1.43,7.04,6.84,12.99,13.33,15.84c6.85,3.01,14.87,2.7,20.92-1.97c2.96-2.28,5.27-5.52,5.83-9.28c0.56-3.71-0.86-7.45-3.54-10.04
			c-2.57-2.48-6.18-3.75-9.67-2.68c-1.84,0.57-1.06,3.46,0.8,2.89c3.29-1.01,6.53,0.96,8.25,3.75c1.87,3.03,1.59,6.53-0.26,9.5
			c-3.74,6.03-11.62,7.96-18.16,6.16c-6.35-1.75-12.04-6.67-14.08-13.02c-2.19-6.82,0.07-13.93,4.12-19.56
			c4.44-6.17,10.86-10.88,17.47-14.48c6.56-3.57,13.65-6.25,20.94-7.9c13.94-3.16,29.88-2.21,40.72,8.13
			c5.86,5.6,9.5,13.07,11.91,20.71c2.14,6.78,3.45,13.82,3.91,20.92c0.88,13.63-1.16,27.68-6.79,40.18
			c-5.64,12.51-14.87,23.11-27.18,29.37c-14.9,7.57-32.24,8.27-48.56,6.51c-17.24-1.87-34.35-6.25-50.75-11.79
			c-16.78-5.66-32.99-12.94-48.38-21.7c-3.74-2.13-7.44-4.36-11.08-6.66C784.06,281.94,782.55,284.53,784.18,285.56L784.18,285.56z"
			/>
	</g>
</g>
<g>
	<g>
		<path class="st0" d="M434.43,382.22c-2.91,14.34,4.9,27.6,14.76,37.39c5.32,5.28,11.38,9.69,17.69,13.69
			c6.65,4.21,13.61,7.95,20.79,11.18c14.42,6.49,29.71,11.01,45.36,13.3c14.31,2.09,29.56,3.07,43.69-0.66
			c6.54-1.72,12.81-4.61,17.97-9.03c5.48-4.69,9.19-11,11.48-17.78c2.45-7.26,3.45-15.1,3.65-22.74c0.21-7.78-0.95-15.56-4.68-22.47
			c-6.59-12.21-19.41-20.17-33.1-21.52c-14.51-1.44-30.57,4.2-40.34,15.2c-4.5,5.07-7.77,11.7-7.27,18.63
			c0.46,6.39,3.88,12.36,8.9,16.28c5.15,4.03,11.75,5.72,18.15,4.08c6.15-1.57,11.59-5.9,14.63-11.46c1.53-2.79,2.41-5.85,2.6-9.02
			c0.12-1.93-2.88-1.92-3,0c-0.73,12.12-14.02,21.31-25.5,16.95c-5.44-2.07-9.94-6.84-11.82-12.33c-2.07-6.02-0.64-12.31,2.77-17.55
			c3.67-5.64,9.25-9.88,15.21-12.88c6.33-3.19,13.4-5,20.49-5.12c13.04-0.22,25.82,5.77,33.38,16.53c4.07,5.79,6.12,12.46,6.51,19.5
			c0.41,7.32-0.33,14.91-2.03,22.04c-1.58,6.64-4.28,13.15-8.86,18.3c-4.21,4.73-9.72,8.08-15.66,10.18
			c-12.62,4.46-26.54,4.14-39.68,2.8c-14.74-1.51-29.28-5.06-43.1-10.39c-13.5-5.2-26.77-12.13-38.25-20.98
			c-10.18-7.84-20.38-18.8-22.17-32.05c-0.42-3.09-0.3-6.23,0.32-9.28C437.71,381.13,434.81,380.32,434.43,382.22L434.43,382.22z"/>
	</g>
</g>
<g>
	<g>
		<path class="st0" d="M1045.12,133.93c16.48,8.25,33.26,16.09,50.85,21.69c16.57,5.27,34.11,8.61,51.56,7.74
			c14.67-0.73,29.3-4.3,42.42-10.97c12.82-6.51,24.12-16.2,31.55-28.61c4.63-7.74,7.67-16.36,9.78-25.1c1.8-7.45,2.99-15.09,3-22.77
			c0-7.37-1.1-14.82-4.05-21.61c-2.93-6.75-7.86-12.47-14.21-16.22c-6.73-3.97-14.56-5.64-22.29-6.06
			c-7.67-0.42-15.52,0.25-23.01,1.93c-7.19,1.61-14.26,4.4-20,9.1c-6.12,5.01-9.84,12.13-11.17,19.87c-1.37,8-0.72,16.33,0.82,24.26
			c1.43,7.35,4,14.64,8.69,20.57c4.2,5.3,9.93,8.8,16.7,9.43c5.83,0.54,12.15-1.07,16.5-5.12c2.07-1.93,3.54-4.43,4.27-7.16
			c0.5-1.87-2.39-2.66-2.89-0.8c-3.07,11.48-19.14,12.54-27.42,6.47c-5.73-4.19-9.21-10.76-11.27-17.41
			c-2.22-7.14-3.25-14.81-3.13-22.28c0.12-7.65,1.86-15.55,6.84-21.57c4.45-5.39,10.72-8.83,17.29-10.96
			c6.86-2.22,14.11-3.2,21.3-3.41c7.43-0.22,15,0.51,21.98,3.18c6.65,2.54,12.36,7.09,16.08,13.18c3.57,5.84,5.26,12.65,5.78,19.43
			c0.54,7.09-0.07,14.25-1.4,21.22c-1.59,8.31-3.93,16.61-7.56,24.27c-6.06,12.78-15.97,23.14-28.04,30.43
			c-11.89,7.18-25.51,11.48-39.28,13.08c-15.94,1.86-32.07-0.04-47.56-4.01c-17.02-4.37-33.29-11.2-49.11-18.76
			c-3.85-1.84-7.68-3.73-11.5-5.64C1044.91,130.47,1043.39,133.06,1045.12,133.93L1045.12,133.93z"/>
	</g>
</g>
<g>
	<g>
		<path class="st0" d="M864.9,474.47c-1.41,7.93,2.75,15.11,7.54,21.08c4.52,5.64,9.7,10.79,15.26,15.41
			c11.07,9.21,23.81,16.41,37.51,20.86c13.49,4.38,27.92,6,42,4.12c13.23-1.77,25.87-6.84,36.78-14.52
			c10.74-7.56,19.88-17.52,26.09-29.13c6.32-11.82,9.53-25.37,8.28-38.78c-0.73-7.83-2.95-15.66-7.36-22.25
			c-3.86-5.76-9.3-10.44-15.54-13.47c-6.28-3.06-13.36-4.58-20.35-4c-6.86,0.57-13.53,3-19.2,6.9
			c-10.86,7.48-19.37,21.65-15.22,35.12c1.74,5.67,5.91,10.35,11.85,11.58c4.96,1.03,10.64-0.01,14.4-3.56
			c1.76-1.66,2.94-3.87,3.31-6.26c0.29-1.89-2.6-2.7-2.89-0.8c-0.71,4.62-4.8,7.3-9.21,7.88c-4.87,0.65-9.7-1.15-12.48-5.28
			c-3.52-5.21-3.58-11.98-1.9-17.85c1.75-6.1,5.56-11.47,10.3-15.64c9.92-8.71,23.79-11.5,36.23-7.05
			c6.17,2.2,11.73,6.06,15.96,11.07c4.7,5.58,7.38,12.6,8.6,19.72c2.15,12.6-0.13,25.84-5.48,37.37
			c-5.15,11.1-13.01,20.81-22.49,28.5c-9.58,7.77-20.94,13.45-32.98,16.2c-12.89,2.95-26.49,2.56-39.34-0.41
			c-13.06-3.02-25.44-8.66-36.49-16.23c-5.58-3.82-10.8-8.16-15.6-12.92c-4.94-4.9-10.01-10.3-13-16.66
			c-1.49-3.18-2.3-6.73-1.68-10.23C868.13,473.38,865.24,472.57,864.9,474.47L864.9,474.47z"/>
	</g>
</g>
</svg>
